<svg xmlns="http://www.w3.org/2000/svg" xmlns:xlink="http://www.w3.org/1999/xlink" viewBox="0 0 18.511 18.511"><defs><style>.a,.b,.c,.g,.h{fill:none}.b,.c,.g,.h{stroke:#636363;stroke-miterlimit:10}.b{clip-rule:evenodd}.e{clip-path:url(#b)}.f{clip-path:url(#c)}.g{stroke-linecap:square}.h{fill-rule:evenodd}.j{clip-path:url(#f)}</style><clipPath id="a" transform="translate(0.876 0.876)"><path d="M11.482,9.69l4.593,4.593a1.313,1.313,0,1,1-1.86,1.854L9.606,11.529" class="a"/></clipPath><clipPath id="b" transform="translate(0.876 0.876)"><path d="M11.482,9.69l4.593,4.593a1.313,1.313,0,1,1-1.86,1.854L9.606,11.529" class="b"/></clipPath><clipPath id="c" transform="translate(0.876 0.876)"><rect width="17.511" height="17.511" x="-.376" y="-.376" class="c"/></clipPath><clipPath id="e" transform="translate(0.876 0.876)"><circle cx="6.629" cy="6.629" r="6.129" class="a"/></clipPath><clipPath id="f" transform="translate(0.876 0.876)"><circle cx="6.629" cy="6.629" r="6.129" class="c"/></clipPath></defs><title>glass</title><g class="e"><g class="f"><path d="M11.482,9.69l4.593,4.593a1.313,1.313,0,1,1-1.86,1.854L9.606,11.529" class="g" transform="translate(0.876 0.876)"/></g><rect width="17.511" height="17.511" x=".5" y=".5" class="c"/></g><path d="M11.482,9.69l4.593,4.593a1.313,1.313,0,1,1-1.86,1.854L9.606,11.529" class="h" transform="translate(0.876 0.876)"/><g class="j"><g class="f"><circle cx="7.504" cy="7.504" r="6.129" class="g"/></g><rect width="17.511" height="17.511" x=".5" y=".5" class="c"/></g><circle cx="7.504" cy="7.504" r="6.129" class="c"/></svg>